HIERARCHY
ROOT Hips
{
	OFFSET 50.276402 -12.921617 100.536003
	CHANNELS 6 Xposition Yposition Zposition Xrotation Yrotation Zrotation
	JOINT spine
	{
		OFFSET 0.000000 -0.507026 8.817039
		CHANNELS 3 Xrotation Yrotation Zrotation
		JOINT spine1
		{
			OFFSET 0.000000 -0.000002 10.776596
			CHANNELS 3 Xrotation Yrotation Zrotation
			JOINT spine2
			{
				OFFSET 0.000000 -0.000001 10.325897
				CHANNELS 3 Xrotation Yrotation Zrotation
				JOINT Neck
				{
					OFFSET 0.000000 -1.263955 26.511002
					CHANNELS 3 Xrotation Yrotation Zrotation
					JOINT Head
					{
						OFFSET 0.000000 -0.000001 8.009659
						CHANNELS 3 Xrotation Yrotation Zrotation
						End Site
						{
							OFFSET 0.000000 6.393857 19.387894
						}
					}
				}
				JOINT RightShoulder
				{
					OFFSET -4.347950 0.605420 11.151199
					CHANNELS 3 Xrotation Yrotation Zrotation
					JOINT RightArm
					{
						OFFSET 0.000000 -0.000003 14.625793
						CHANNELS 3 Xrotation Yrotation Zrotation
						JOINT RightArmRoll
						{
							OFFSET 0.000000 -0.000001 7.383408
							CHANNELS 3 Xrotation Yrotation Zrotation
							JOINT RightForeArm
							{
								OFFSET 0.000000 -0.000004 21.505203
								CHANNELS 3 Xrotation Yrotation Zrotation
								JOINT RightForeArmRoll
								{
									OFFSET 0.000000 -0.000001 8.285324
									CHANNELS 3 Xrotation Yrotation Zrotation
									JOINT RightHand
									{
										OFFSET 0.000000 -0.000003 16.626801
										CHANNELS 3 Xrotation Yrotation Zrotation
										End Site
										{
											OFFSET 0.000000 0.000000 0.100006
										}
									}
								}
							}
						}
					}
				}
				JOINT LeftShoulder
				{
					OFFSET 4.347950 0.605420 11.151199
					CHANNELS 3 Xrotation Yrotation Zrotation
					JOINT LeftArm
					{
						OFFSET 0.000000 -0.000003 14.625793
						CHANNELS 3 Xrotation Yrotation Zrotation
						JOINT LeftArmRoll
						{
							OFFSET 0.000000 -0.000001 7.383392
							CHANNELS 3 Xrotation Yrotation Zrotation
							JOINT LeftForeArm
							{
								OFFSET 0.000000 -0.000004 21.505203
								CHANNELS 3 Xrotation Yrotation Zrotation
								JOINT LeftForeArmRoll
								{
									OFFSET 0.000000 -0.000001 8.285324
									CHANNELS 3 Xrotation Yrotation Zrotation
									JOINT LeftHand
									{
										OFFSET 0.000000 -0.000003 16.626801
										CHANNELS 3 Xrotation Yrotation Zrotation
										End Site
										{
											OFFSET 0.000000 0.000000 0.100006
										}
									}
								}
							}
						}
					}
				}
			}
		}
	}
	JOINT RightUpLeg
	{
		OFFSET -7.815102 1.202170 -1.433090
		CHANNELS 3 Xrotation Yrotation Zrotation
		JOINT RightUpLegRoll
		{
			OFFSET 0.000000 -0.000003 19.495903
			CHANNELS 3 Xrotation Yrotation Zrotation
			JOINT RightLeg
			{
				OFFSET 0.000000 0.000004 -24.142700
				CHANNELS 3 Xrotation Yrotation Zrotation
				JOINT RightLegRoll
				{
					OFFSET 0.000000 -0.000004 24.221703
					CHANNELS 3 Xrotation Yrotation Zrotation
					JOINT RightFoot
					{
						OFFSET 0.000000 -0.000004 20.160500
						CHANNELS 3 Xrotation Yrotation Zrotation
						JOINT RightToeBase
						{
							OFFSET 0.000000 -0.000003 16.853195
							CHANNELS 3 Xrotation Yrotation Zrotation
							End Site
							{
								OFFSET 0.007145 0.940780 8.161865
							}
						}
					}
				}
			}
		}
	}
	JOINT LeftUpLeg
	{
		OFFSET 7.815102 1.202170 -1.433090
		CHANNELS 3 Xrotation Yrotation Zrotation
		JOINT LeftUpLegRoll
		{
			OFFSET 0.000000 -0.000003 19.496002
			CHANNELS 3 Xrotation Yrotation Zrotation
			JOINT LeftLeg
			{
				OFFSET 0.000000 -0.000004 24.142601
				CHANNELS 3 Xrotation Yrotation Zrotation
				JOINT LeftLegRoll
				{
					OFFSET 0.000000 -0.000005 24.445602
					CHANNELS 3 Xrotation Yrotation Zrotation
					JOINT LeftFoot
					{
						OFFSET 0.000000 -0.000003 19.936600
						CHANNELS 3 Xrotation Yrotation Zrotation
						JOINT LeftToeBase
						{
							OFFSET 0.000000 -0.000003 16.853195
							CHANNELS 3 Xrotation Yrotation Zrotation
							End Site
							{
								OFFSET -0.032013 0.940779 8.161865
							}
						}
					}
				}
			}
		}
	}
}
MOTION
Frames: 9
Frame Time: 0.041667
50.576801 -10.589025 99.963081 5.356204 0.814591 6.570969 -1.936019 0.479911 0.246704 0.128692 0.953836 0.504885 1.773839 0.959816 0.493419 6.552309 34.322643 0.420520 7.875006 -18.588949 1.199725 2.269628 -35.466956 6.330190 304.484615 -133.441706 284.321678 -0.000001 -0.000002 0.000000 68.519918 -4.819256 1.894574 -0.000006 0.000009 -2.999980 -5.000232 -7.998772 0.000163 -42.575035 66.407812 49.092531 -94.648561 137.732254 131.415435 0.000003 0.000007 -0.000003 96.176037 -6.987999 12.837458 -0.000000 0.000011 3.000108 -5.000245 7.998781 -0.000145 -10.969672 180.014731 -1.912463 -179.999991 0.000005 -0.882009 168.945453 -1.737175 -0.747342 -0.000001 0.000001 0.109731 69.604361 7.035376 1.710631 25.874676 -7.352095 0.054010 -13.319787 175.876579 1.522784 -0.000004 -0.000004 -0.945552 -15.788734 3.637323 1.017339 -0.000004 -0.000000 -0.227497 70.818133 -6.838487 -2.146568 26.019329 7.350685 -0.858690 
50.583698 -10.598621 99.966179 5.334842 0.814557 6.315378 -1.956136 0.470512 0.234503 0.088572 0.935244 0.480434 1.733714 0.940931 0.469192 6.738302 33.876871 0.485481 7.652926 -18.150114 1.243342 2.195506 -35.850331 6.163044 305.055400 -132.995449 284.144667 -0.000001 -0.000003 0.000001 69.048322 -4.617443 1.808772 -0.000001 0.000011 -2.999983 -5.000233 -7.998772 0.000164 -42.069611 66.354297 48.532322 -94.861383 138.149305 131.320209 0.000000 0.000008 -0.000003 95.891922 -6.800277 12.555360 0.000002 0.000010 3.000109 -5.000239 7.998782 -0.000145 -10.986370 179.989200 -1.929623 -179.999991 0.000005 -0.880998 168.922750 -1.718392 -0.749381 -0.000001 0.000001 0.107629 69.567471 7.028402 1.731909 25.893358 -7.352073 0.056413 -13.236142 175.847906 1.485016 -0.000004 -0.000004 -0.946851 -15.791543 3.665170 1.020114 -0.000004 -0.000000 -0.227646 70.870951 -6.837597 -2.145370 26.033362 7.350411 -0.869672 
50.612305 -10.608824 99.972488 5.314610 0.813830 6.060516 -1.976815 0.460244 0.222041 0.047355 0.914924 0.455443 1.692499 0.920314 0.444449 6.939152 33.438728 0.546434 7.421593 -17.714014 1.285725 2.113347 -36.224120 5.986790 305.644217 -132.549301 283.983747 -0.000001 -0.000002 0.000002 69.566692 -4.411540 1.718182 -0.000002 0.000010 -2.999977 -5.000229 -7.998774 0.000163 -41.577998 66.319422 47.984968 -95.120288 138.563747 131.309157 -0.000001 0.000007 -0.000003 95.620995 -6.616266 12.290149 -0.000000 0.000013 3.000100 -5.000244 7.998782 -0.000142 -11.000675 179.965649 -1.945779 -179.999991 0.000005 -0.879005 168.905346 -1.700635 -0.750445 -0.000001 0.000001 0.105412 69.529461 7.021503 1.753170 25.911337 -7.352049 0.058683 -13.154374 175.821172 1.447760 -0.000004 -0.000004 -0.948049 -15.793761 3.693524 1.022982 -0.000004 -0.000000 -0.227703 70.922342 -6.836820 -2.144184 26.047085 7.350129 -0.877782 
50.632401 -10.625826 99.970001 5.295088 0.812277 5.805090 -1.998354 0.448719 0.209336 0.004394 0.892096 0.429940 1.649532 0.897181 0.419221 7.157938 33.015266 0.604961 7.177963 -17.283304 1.328762 2.024198 -36.580284 5.802760 306.261584 -132.106377 283.849958 -0.000003 -0.000000 0.000003 70.076197 -4.201632 1.621522 -0.000006 0.000013 -2.999980 -5.000232 -7.998771 0.000162 -41.105933 66.308159 47.457240 -95.432926 138.976482 131.394384 -0.000001 0.000006 -0.000001 95.369597 -6.435421 12.046096 -0.000000 0.000010 3.000101 -5.000244 7.998782 -0.000139 -11.012479 179.944052 -1.961511 -179.999991 0.000005 -0.878006 168.892246 -1.681913 -0.751163 -0.000001 0.000001 0.103140 69.490290 7.014571 1.774391 25.929222 -7.352028 0.060942 -13.073482 175.795450 1.410689 -0.000004 -0.000004 -0.949172 -15.794700 3.722750 1.025937 -0.000004 -0.000000 -0.227665 70.972564 -6.836029 -2.142968 26.060298 7.349858 -0.883309 
50.666698 -10.639324 99.976982 5.276264 0.810079 5.549162 -2.020577 0.436170 0.196414 -0.039922 0.867228 0.403979 1.605216 0.872003 0.393559 7.392060 32.602180 0.661634 6.923612 -16.855578 1.372443 1.927949 -36.922722 5.610707 306.902912 -131.666103 283.738298 -0.000002 -0.000003 0.000001 70.577096 -3.987460 1.518804 -0.000006 0.000010 -2.999974 -5.000233 -7.998775 0.000161 -40.647064 66.316888 46.942370 -95.788642 139.388971 131.559306 0.000000 0.000006 -0.000003 95.132746 -6.257505 11.817759 0.000001 0.000012 3.000099 -5.000246 7.998781 -0.000145 -11.022482 179.922455 -1.976605 -179.999991 0.000005 -0.875998 168.882738 -1.664191 -0.751974 -0.000001 0.000001 0.100817 69.450060 7.007604 1.795871 25.946997 -7.351995 0.063179 -12.993372 175.770711 1.373774 -0.000003 -0.000004 -0.950222 -15.794649 3.752687 1.028966 -0.000004 -0.000000 -0.227546 71.021755 -6.835299 -2.141925 26.073115 7.349596 -0.886436 
50.673996 -10.646826 99.972878 5.258136 0.807416 5.292806 -2.043277 0.422829 0.183306 -0.085204 0.840789 0.377622 1.559931 0.845250 0.367520 7.638995 32.195265 0.716992 6.660127 -16.428454 1.416754 1.824499 -37.255110 5.410402 307.562927 -131.226826 283.642539 -0.000001 0.000003 -0.000000 71.069983 -3.768526 1.409723 -0.000005 0.000012 -2.999978 -5.000235 -7.998776 0.000164 -40.194762 66.341470 46.433323 -96.177622 139.802662 131.787844 0.000003 0.000004 -0.000003 94.906073 -6.081999 11.603793 -0.000002 0.000011 3.000100 -5.000245 7.998780 -0.000146 -11.030989 179.901855 -1.991406 -179.999991 0.000005 -0.875002 168.876332 -1.646488 -0.753687 -0.000001 0.000001 0.098444 69.408915 7.000674 1.817310 25.964580 -7.351975 0.065390 -12.914235 175.747925 1.336780 -0.000005 -0.000003 -0.951204 -15.793913 3.783138 1.032044 -0.000004 -0.000000 -0.227353 71.070208 -6.834562 -2.140828 26.085526 7.349348 -0.887346 
50.716202 -10.658223 99.970474 5.240697 0.804472 5.036084 -2.066263 0.408929 0.170044 -0.131064 0.813246 0.350927 1.514064 0.817389 0.341158 7.896200 31.790166 0.771581 6.389073 -15.999575 1.461693 1.713705 -37.581313 5.201550 308.237722 -130.788082 283.558637 -0.000002 -0.000000 0.000002 71.555364 -3.544553 1.294139 -0.000003 0.000013 -2.999978 -5.000232 -7.998774 0.000161 -39.743047 66.377971 45.923699 -96.590295 140.218770 132.064139 0.000006 0.000004 -0.000003 94.684563 -5.908525 11.397879 0.000004 0.000011 3.000100 -5.000246 7.998783 -0.000145 -11.038696 179.882239 -2.006052 -179.999991 0.000005 -0.873008 168.872247 -1.628811 -0.754337 -0.000002 0.000001 0.096031 69.367046 6.993752 1.838589 25.981953 -7.351956 0.067561 -12.836095 175.725140 1.300138 -0.000004 -0.000004 -0.952123 -15.792688 3.813953 1.035159 -0.000004 -0.000000 -0.227099 71.118156 -6.833854 -2.139868 26.097731 7.349096 -0.886241 
50.731899 -10.661825 99.970085 5.223943 0.801429 4.779079 -2.089351 0.394703 0.156656 -0.177110 0.785065 0.323960 1.468010 0.788887 0.314530 8.161198 31.382517 0.825931 6.112044 -15.566262 1.507205 1.595415 -37.905135 4.983838 308.919511 -130.346797 283.477494 -0.000003 0.000001 0.000001 72.033695 -3.315255 1.171958 -0.000007 0.000014 -2.999983 -5.000232 -7.998775 0.000159 -39.286872 66.422429 45.408067 -97.017947 140.638335 132.373096 0.000005 0.000005 -0.000004 94.463927 -5.736240 11.197752 0.000002 0.000008 3.000087 -5.000244 7.998782 -0.000144 -11.045907 179.863579 -2.020697 -179.999991 0.000005 -0.872010 168.870034 -1.612111 -0.755121 -0.000002 0.000001 0.093577 69.324467 6.986869 1.859919 25.999026 -7.351938 0.069686 -12.759054 175.702382 1.263823 -0.000005 -0.000004 -0.952983 -15.791271 3.844957 1.038291 -0.000005 -0.000000 -0.226799 71.165899 -6.833145 -2.138820 26.109638 7.348869 -0.883283 
50.739899 -10.673624 99.971283 5.207855 0.798469 4.521845 -2.112328 0.380381 0.143175 -0.222956 0.756713 0.296784 1.422166 0.760211 0.287697 8.431497 30.968095 0.880566 5.830635 -15.126070 1.553281 1.469474 -38.230242 4.756923 309.604962 -129.902685 283.396160 -0.000002 -0.000002 0.000001 72.505463 -3.080316 1.043048 -0.000006 0.000013 -2.999975 -5.000231 -7.998772 0.000160 -38.820248 66.470650 44.880101 -97.452087 141.062025 132.699347 0.000004 0.000001 -0.000003 94.239378 -5.564544 10.999121 0.000000 0.000011 3.000091 -5.000243 7.998784 -0.000144 -11.053316 179.843949 -2.035125 -179.999991 0.000005 -0.871000 168.869037 -1.594453 -0.756678 -0.000002 0.000001 0.091090 69.281395 6.980034 1.881080 26.015893 -7.351914 0.071776 -12.683096 175.680621 1.227592 -0.000006 -0.000004 -0.953789 -15.789956 3.875959 1.041422 -0.000004 -0.000000 -0.226460 71.213649 -6.832430 -2.137872 26.121442 7.348641 -0.878688 
